<svg width="1024" height="1024" viewBox="0 0 1024 1024" fill="none" xmlns="http://www.w3.org/2000/svg">
<g clip-path="url(#clip0_10_13)">
<mask id="path-1-outside-1_10_13" maskUnits="userSpaceOnUse" x="104.054" y="72" width="828" height="819" fill="black">
<rect fill="white" x="104.054" y="72" width="828" height="819"/>
<path d="M258.87 883.75C258.23 885.51 257.27 886 254.49 886H254.46C253.63 886 252.96 886 252.36 885.81C250.01 885.04 248.63 881.31 241.8 863C206.11 767.24 191.47 681.57 193.38 579.5C193.74 560.25 194.43 538.21 194.92 530.53L195.8 516.56L190.74 511.03C171.72 490.22 163.05 467.66 161.02 433.73C160.52 425.51 159.96 418.63 159.77 418.43C159.39 418.06 145.28 441.24 130.51 466.5L130.06 467.27C119.39 485.5 116.76 490 114.29 489.92C113.44 489.89 112.61 489.32 111.49 488.59C108 486.3 108.18 481.08 112.55 458.7C122.98 405.25 140.55 352.1 162.52 307.5C180.73 270.52 197.2 247.8 224.52 221.95C253.96 194.09 300.32 165.8 347.03 147.18C387.27 131.15 422.8 122.27 468.5 116.85C482.83 115.15 533.68 115.12 549 116.8C596.01 121.98 635.81 132.16 670.38 147.87L677.27 151L680.88 148.83C682.87 147.63 690.12 142.81 697 138.1C735.45 111.81 757.34 98.38 779.5 87.54C795.17 79.87 805.9 76 811.54 76C815.82 76 816.34 76.75 828.74 101C884.69 210.41 911.7 286.97 922.56 366.99C926.77 398.03 927.51 413.72 927.41 470C927.28 538.1 925.85 551 918.43 551C914.76 551 911.45 546.88 906 535.5C900.24 523.47 894.51 506.88 887.53 482C886.02 476.61 885.8 477.26 883.98 492.5C880.46 521.98 868.24 585.41 863.16 600.5C861.29 606.09 858.33 607.52 854.97 604.47C852.61 602.33 852 599.26 846.54 562C841.11 524.9 835.5 489.43 833.9 482C833.38 479.57 833.06 478.01 832.61 477.97C831.86 477.9 830.73 482 827.65 493.19L827.42 494C820.25 520.05 807.25 550.69 795.82 568.5C791.49 575.24 776.55 594.48 763.67 609.89C746.58 630.34 719.2 649 694 657.37C685.45 660.2 686.68 658.23 679.68 680.5C664.52 728.78 643.58 780.79 624.16 818.44C616.15 833.95 596.76 865.21 591.71 870.75C589.22 873.48 586.96 873.6 583.97 871.18L581.72 869.35L584.32 859.43C585.74 853.97 587.82 844.1 588.92 837.5C591.51 822.09 599.37 757.71 601.44 735C602.32 725.38 603.25 716.26 603.5 714.75C603.75 713.24 603.59 712 603.15 712C602.71 712 597.43 715.67 591.42 720.16C554.18 747.98 509.53 772.63 471.7 786.25C460.23 790.38 459.91 790.58 460.4 793.16C460.68 794.62 461.41 804.52 462.03 815.16C463.59 842.31 461.35 868.96 456.56 880.25C454.73 884.58 451.48 885.29 448.51 882.01C446.77 880.09 446.79 879.55 449.1 866.76C451.24 854.94 451.5 850.68 451.46 827.5C451.44 813.2 451.1 799.91 450.71 797.98L449.99 794.46L440.25 794.44C428.67 794.41 421.99 792.36 401.33 782.5C382.11 773.32 370.55 766.23 345.57 748.32C321.82 731.29 287.71 697.34 276.12 679.21C274.26 676.3 272.58 674.09 272.38 674.28C271.56 675.11 266.26 743.48 263.57 788C262.75 801.47 261.55 828.03 260.89 847C260.23 865.97 259.32 882.51 258.87 883.75ZM598.41 839.52C598.06 840.88 597.99 842 598.24 842C600.12 842 621.96 800.29 632.02 777.5C648.3 740.6 667.88 686.53 676.37 655C691.33 599.46 704.24 504.96 702.61 463C700.86 418.09 687.43 352.57 668.4 296.18C661.93 277 661.12 272.38 664 270.97C664.83 270.56 670.45 269.46 676.5 268.52C689.21 266.56 718.13 257.29 732.45 250.6C743.23 245.56 763 234.01 763 232.75C763 230.64 724.8 194.81 708.89 182C698.13 173.34 672.29 159.63 651.5 151.55C589.68 127.53 512.53 120.11 443.11 131.51C374.43 142.79 302.56 173.45 251.22 213.37C238.05 223.61 218.54 242.15 209.59 252.92C180.6 287.81 155.41 340.14 136.38 405C130.95 423.52 122.8 455.89 123.23 457.2C123.41 457.72 125.67 454.39 128.26 449.82C130.86 445.24 137.7 433.85 143.48 424.5C149.25 415.15 156.13 403.91 158.77 399.51C163.77 391.17 167.07 388.43 170.12 390.06C172.73 391.46 173.14 393.96 172.04 401.59C170.73 410.63 170.73 433.38 172.03 443.77C174.37 462.45 180.24 479.18 188.84 491.69C196.13 502.31 211.78 518.37 235.17 539.25C239.32 542.96 242.93 546 243.19 546C243.84 546 241.17 534.91 229.45 489C223.76 466.73 218.41 444.78 217.57 440.23C211.3 406.48 217.89 363.35 234.5 329.32C240.05 317.95 241.79 316.16 246 317.5C250.59 318.96 250.33 321.25 244.09 334.2C236.95 349.03 231.92 363.77 228.96 378.53C226.17 392.46 225.17 420.01 226.99 433.35C228.02 440.99 232.77 462.1 237.12 478.4L238.16 482.3L241.62 473.9C258 434.13 270 397.2 293.56 314C300.28 290.28 305.97 271.96 306.85 271.25C309.03 269.48 311.7 269.7 313.84 271.84C314.85 272.85 317.72 279.94 320.21 287.59C333.21 327.5 360.05 391.52 378.67 427C396.18 460.39 416.71 493.36 433.56 515.16L438.82 521.97L439.4 517.23C439.73 514.63 440.45 501.25 441.02 487.5C442.09 461.27 442.73 449.45 445.97 395.5C447.06 377.35 448.64 349 449.47 332.5C451.6 290.37 451.93 287.07 454.14 284.86C458.69 280.31 460.56 281.94 477.02 304.71C493.53 327.55 512.55 352.87 527.18 371.5C539.36 387.01 572.78 427.01 574.96 428.68C575.81 429.34 580.95 431.28 586.38 433.01C591.82 434.74 600.32 437.94 605.26 440.12C610.21 442.29 614.46 443.87 614.71 443.62C615.33 443.01 612.33 411.06 609.91 392.5C601.76 329.84 589.19 297.03 562.08 267.66C554.52 259.47 553 257.28 553 254.57C553 252.04 553.58 251.06 555.61 250.13C557.05 249.47 559.07 249.2 560.09 249.53C562.39 250.26 575.14 265.26 583.54 277.13C603.68 305.58 613.81 339.52 621.41 404C627.11 452.33 629.02 488.57 627.89 527C627.08 554.37 621.09 637.88 616.99 679C614.22 706.8 606.72 780.41 605.94 787.5C604.83 797.61 599.24 836.21 598.41 839.52ZM429.41 782.56C436.87 784.67 446.63 783.69 458.5 779.64C496.29 766.76 540.06 743.92 575 718.84C595.45 704.17 604.89 696.36 605.45 693.69C605.94 691.33 608.79 659.29 612.01 620C615.34 579.35 617.95 539.62 618.65 518.95L619.3 499.4L612.9 492.07C604.6 482.57 597.56 473.95 582.94 455.39L571.04 440.28L565.37 439.14C562.25 438.52 552.9 437.25 544.6 436.32C531.61 434.88 527.48 434.81 515 435.84C493.17 437.64 474.42 442.33 459.77 449.64C455.05 452 452.89 453.68 452.56 455.25C452.3 456.49 451.59 470.77 450.99 487C449.14 537.15 448.81 538.94 441.66 537.6C437.58 536.83 433.16 532.06 419.79 514C401.99 489.96 385.92 463.59 368.93 430.5C350.58 394.78 327.91 341.84 316.79 308.75C313.88 300.09 311.24 293 310.91 293C310.59 293 306.9 305.04 302.71 319.75C293.2 353.21 275.56 412.66 272.96 420.07C271.88 423.13 271 425.92 271 426.28C271 426.64 276.06 426.66 282.25 426.33C308.04 424.95 337.99 432.02 349.62 442.24C354.24 446.3 355.34 448.49 354.01 450.98C351.88 454.96 349.53 455.21 345.36 451.87C332.87 441.89 307.07 435.95 282.31 437.36C276.16 437.71 270.06 438.41 268.76 438.9C266.2 439.87 265.93 440.42 257.91 461C255.01 468.42 250.44 479.67 247.75 486C244.72 493.13 243.02 498.45 243.29 500C243.53 501.38 245.85 511.27 248.44 522C253.52 543.03 258.8 569.02 262.04 589C263.15 595.88 264.94 606.9 266.02 613.5C267.09 620.1 268.89 631.31 270.01 638.4C272.4 653.59 273.76 656.98 282.62 669.83C291.98 683.41 300.64 693.39 316.69 709.09C345.73 737.5 381.66 762.44 413.82 776.52C419.6 779.05 426.61 781.77 429.41 782.56ZM857.15 566.43C857.97 573.13 858.62 575.73 859.15 574.43C860.09 572.12 868.3 529.67 870.55 515.5C871.43 510 873.88 493.64 876.01 479.14C879.9 452.65 880.95 449 884.65 449C886.98 449 889.85 452.73 890.98 457.2C899.88 492.42 914.82 536.23 916.47 531.93C917.56 529.09 918.49 468.2 917.87 440.5C916.06 359.96 902.5 295.51 870.74 216.5C856.2 180.32 815.24 95.16 809.46 89.1C808.31 87.89 807.14 88.02 801.31 89.98C786.05 95.1 752.04 114.03 724 133.01C716.58 138.04 705.62 145.37 699.65 149.31C692.1 154.3 689.22 156.72 690.15 157.27C690.89 157.71 696.37 160.97 702.33 164.52L713.16 170.97L722.66 169.98C738 168.39 754.08 170.93 763.45 176.42C769.17 179.77 776.1 187.46 779.3 194C784.49 204.63 785.32 218.97 781.28 228.11L779.29 232.6L785.23 241.55C800.76 264.93 820.83 313.15 829.52 347.93C837.03 377.99 839.45 399.45 838.75 429.89C838.23 452.49 838.23 452.51 841.55 469C844.93 485.79 854.95 548.38 857.15 566.43ZM787.42 560C786.8 563.39 786.83 563.43 788.38 561.35C791.09 557.69 801.62 536.03 805.79 525.5C811.96 509.94 818.88 487.9 822.6 472C831.77 432.74 830.93 395.8 819.87 351.74C812.78 323.48 798 284.11 798 293.47C798 295.69 780.17 330.29 774.02 340C754.31 371.15 742.62 387.67 721.83 413.77C716.45 420.51 711.6 426.87 711.06 427.89C710.4 429.11 710.39 432.62 711.01 438.06C711.53 442.63 712.26 453.48 712.63 462.18C713.26 476.92 713.82 479.72 715.58 476.87C715.96 476.25 719.55 474.23 723.56 472.38C732.86 468.08 742.83 466.56 751.66 468.1C771.45 471.55 786.77 494.43 789.42 524.5C790 531.15 788.8 552.51 787.42 560ZM243.25 836.39L250.5 858.28L250.72 851.39C252.48 796.21 257.15 724.7 262.03 678.2C263.74 661.84 263.8 659.24 262.53 653.7C261.2 647.9 256.78 621.41 250.46 581.28L247.75 564.05L237.12 554.65C231.28 549.48 221.77 540.92 216 535.64L205.5 526.04L204.86 534.27C204.51 538.8 203.89 557.35 203.49 575.5C201.37 670.01 212.65 744.04 243.25 836.39ZM707 410.63C707 412.48 707.34 413.98 707.75 413.97C708.49 413.93 710.15 411.83 729.24 386.8C744.23 367.15 761.56 340.87 773.24 320.13C780.63 306.99 792.99 280.62 793 277.98C793 275.21 773.18 241 771.57 241C771.38 241 767.23 243.52 762.36 246.6C740.12 260.65 700.14 276.4 678.75 279.53C676.14 279.91 674 280.48 674 280.79C674 281.1 675.32 284.99 676.94 289.43C682.01 303.33 688.77 326.16 694.06 347.22C699.73 369.82 707 405.44 707 410.63ZM689 647.24C689 648.82 691.86 647.81 703.66 642.09C720.53 633.9 731.66 626.23 744.16 614.19C763.64 595.41 772.29 582.57 775.94 567.04C783.73 533.81 779.15 502.31 764.38 487.54C752.99 476.15 740.21 475.2 723.5 484.5C713.76 489.92 712.32 492.03 711.54 502C709.65 526.07 705.13 562 700.4 590.5C697.71 606.65 691.65 637.3 690.01 642.99C689.45 644.91 689 646.83 689 647.24ZM563.97 596.5C554.79 602.35 543.62 599.31 537.12 589.19C526.32 572.35 520.24 547.26 519.13 514.91L518.5 496.32L509 498.65C496.72 501.66 491.36 503.99 481.16 510.73C473.84 515.57 472.54 516.11 470.44 515.16C469.13 514.56 467.75 512.84 467.37 511.34C466.77 508.96 467.31 508.04 471.53 504.23C476.56 499.67 482.99 496.05 494.02 491.57C519.65 481.16 564.42 482.99 597.86 495.83C606.41 499.12 608.6 502.15 605.96 507.07C604.62 509.58 603.4 509.51 596.6 506.5C593.49 505.12 590.73 504 590.47 504C590.21 504 590 507.04 590 510.75C589.99 514.46 589.53 522.67 588.96 529C585.66 565.67 577.43 587.9 563.97 596.5ZM453.61 434.75C453.35 437.64 453.5 440 453.93 440C454.37 440 457.6 438.7 461.11 437.11C469.45 433.34 486.94 428.45 499.5 426.38C511.45 424.41 538.79 424.13 550.41 425.85C554.75 426.5 558.49 426.84 558.72 426.62C558.94 426.39 557.14 423.97 554.7 421.23C533.58 397.45 493.24 345.91 470.5 313.66L461.5 300.89L460.82 311.2C460.45 316.86 459.66 330.27 459.08 341C456.92 380.46 454.05 429.65 453.61 434.75ZM339.41 596.6C334.24 599.64 329.88 599.62 323.26 596.54C318.88 594.5 317.28 592.94 313.42 586.98C303.43 571.55 298.53 551 296.75 517.12L295.58 494.74L285.04 495.28C279.24 495.58 271.19 496.42 267.14 497.14C259.97 498.41 259.73 498.39 257.98 496.23C253.82 491.09 258.26 487.85 273 485.26C284.48 483.25 306.56 484.04 317.14 486.84C344.34 494.04 355.98 512.23 355.97 547.5C355.97 573.56 350.37 590.16 339.41 596.6ZM550.29 587.03C554.15 589.39 554.33 589.4 558 587.5C569.21 581.7 578.28 551.82 579.7 516L580.28 501.5L569.8 499.24C558.66 496.83 534.05 494.53 530.73 495.58C528.81 496.19 528.76 496.88 529.28 514.86C529.84 534.23 531.41 545.52 535.48 559.66C539.63 574.08 544.84 583.71 550.29 587.03ZM324.53 584.47C329.23 589.16 332.74 589.19 336.79 584.58C343.29 577.18 346.64 560.86 345.73 541C344.59 516.01 336.05 503.07 317.29 497.87C316.84 497.74 316.4 497.62 315.98 497.51C311.04 496.13 308.54 495.43 307.28 496.38C305.99 497.35 305.99 500.04 306 505.48C306 505.93 306 506.4 306 506.89C306 532.67 311.25 561.45 318.64 576.22C319.94 578.81 322.59 582.52 324.53 584.47ZM757.46 212.13C764.59 219.13 770.74 224.66 771.14 224.41C772.85 223.36 774.02 213.4 773.05 208.26C769.59 190.04 754.69 179.98 731.2 180.01L723.5 180.02L734 189.71C739.78 195.04 750.33 205.13 757.46 212.13ZM607.26 469.14C612.63 475.66 617.26 481 617.56 481C618.6 481 616.76 458.5 615.63 457.31C614.09 455.68 601.52 449.55 593.63 446.58L587.16 444.15L592.33 450.72C595.17 454.32 601.89 462.62 607.26 469.14Z"/>
</mask>
<path d="M258.87 883.75C258.23 885.51 257.27 886 254.49 886H254.46C253.63 886 252.96 886 252.36 885.81C250.01 885.04 248.63 881.31 241.8 863C206.11 767.24 191.47 681.57 193.38 579.5C193.74 560.25 194.43 538.21 194.92 530.53L195.8 516.56L190.74 511.03C171.72 490.22 163.05 467.66 161.02 433.73C160.52 425.51 159.96 418.63 159.77 418.43C159.39 418.06 145.28 441.24 130.51 466.5L130.06 467.27C119.39 485.5 116.76 490 114.29 489.92C113.44 489.89 112.61 489.32 111.49 488.59C108 486.3 108.18 481.08 112.55 458.7C122.98 405.25 140.55 352.1 162.52 307.5C180.73 270.52 197.2 247.8 224.52 221.95C253.96 194.09 300.32 165.8 347.03 147.18C387.27 131.15 422.8 122.27 468.5 116.85C482.83 115.15 533.68 115.12 549 116.8C596.01 121.98 635.81 132.16 670.38 147.87L677.27 151L680.88 148.83C682.87 147.63 690.12 142.81 697 138.1C735.45 111.81 757.34 98.38 779.5 87.54C795.17 79.87 805.9 76 811.54 76C815.82 76 816.34 76.75 828.74 101C884.69 210.41 911.7 286.97 922.56 366.99C926.77 398.03 927.51 413.72 927.41 470C927.28 538.1 925.85 551 918.43 551C914.76 551 911.45 546.88 906 535.5C900.24 523.47 894.51 506.88 887.53 482C886.02 476.61 885.8 477.26 883.98 492.5C880.46 521.98 868.24 585.41 863.16 600.5C861.29 606.09 858.33 607.52 854.97 604.47C852.61 602.33 852 599.26 846.54 562C841.11 524.9 835.5 489.43 833.9 482C833.38 479.57 833.06 478.01 832.61 477.97C831.86 477.9 830.73 482 827.65 493.19L827.42 494C820.25 520.05 807.25 550.69 795.82 568.5C791.49 575.24 776.55 594.48 763.67 609.89C746.58 630.34 719.2 649 694 657.37C685.45 660.2 686.68 658.23 679.68 680.5C664.52 728.78 643.58 780.79 624.16 818.44C616.15 833.95 596.76 865.21 591.71 870.75C589.22 873.48 586.96 873.6 583.97 871.18L581.72 869.35L584.32 859.43C585.74 853.97 587.82 844.1 588.92 837.5C591.51 822.09 599.37 757.71 601.44 735C602.32 725.38 603.25 716.26 603.5 714.75C603.75 713.24 603.59 712 603.15 712C602.71 712 597.43 715.67 591.42 720.16C554.18 747.98 509.53 772.63 471.7 786.25C460.23 790.38 459.91 790.58 460.4 793.16C460.68 794.62 461.41 804.52 462.03 815.16C463.59 842.31 461.35 868.96 456.56 880.25C454.73 884.58 451.48 885.29 448.51 882.01C446.77 880.09 446.79 879.55 449.1 866.76C451.24 854.94 451.5 850.68 451.46 827.5C451.44 813.2 451.1 799.91 450.71 797.98L449.99 794.46L440.25 794.44C428.67 794.41 421.99 792.36 401.33 782.5C382.11 773.32 370.55 766.23 345.57 748.32C321.82 731.29 287.71 697.34 276.12 679.21C274.26 676.3 272.58 674.09 272.38 674.28C271.56 675.11 266.26 743.48 263.57 788C262.75 801.47 261.55 828.03 260.89 847C260.23 865.97 259.32 882.51 258.87 883.75ZM598.41 839.52C598.06 840.88 597.99 842 598.24 842C600.12 842 621.96 800.29 632.02 777.5C648.3 740.6 667.88 686.53 676.37 655C691.33 599.46 704.24 504.96 702.61 463C700.86 418.09 687.43 352.57 668.4 296.18C661.93 277 661.12 272.38 664 270.97C664.83 270.56 670.45 269.46 676.5 268.52C689.21 266.56 718.13 257.29 732.45 250.6C743.23 245.56 763 234.01 763 232.75C763 230.64 724.8 194.81 708.89 182C698.13 173.34 672.29 159.63 651.5 151.55C589.68 127.53 512.53 120.11 443.11 131.51C374.43 142.79 302.56 173.45 251.22 213.37C238.05 223.61 218.54 242.15 209.59 252.92C180.6 287.81 155.41 340.14 136.38 405C130.95 423.52 122.8 455.89 123.23 457.2C123.41 457.72 125.67 454.39 128.26 449.82C130.86 445.24 137.7 433.85 143.48 424.5C149.25 415.15 156.13 403.91 158.77 399.51C163.77 391.17 167.07 388.43 170.12 390.06C172.73 391.46 173.14 393.96 172.04 401.59C170.73 410.63 170.73 433.38 172.03 443.77C174.37 462.45 180.24 479.18 188.84 491.69C196.13 502.31 211.78 518.37 235.17 539.25C239.32 542.96 242.93 546 243.19 546C243.84 546 241.17 534.91 229.45 489C223.76 466.73 218.41 444.78 217.57 440.23C211.3 406.48 217.89 363.35 234.5 329.32C240.05 317.95 241.79 316.16 246 317.5C250.59 318.96 250.33 321.25 244.09 334.2C236.95 349.03 231.92 363.77 228.96 378.53C226.17 392.46 225.17 420.01 226.99 433.35C228.02 440.99 232.77 462.1 237.12 478.4L238.16 482.3L241.62 473.9C258 434.13 270 397.2 293.56 314C300.28 290.28 305.97 271.96 306.85 271.25C309.03 269.48 311.7 269.7 313.84 271.84C314.85 272.85 317.72 279.94 320.21 287.59C333.21 327.5 360.05 391.52 378.67 427C396.18 460.39 416.71 493.36 433.56 515.16L438.82 521.97L439.4 517.23C439.73 514.63 440.45 501.25 441.02 487.5C442.09 461.27 442.73 449.45 445.97 395.5C447.06 377.35 448.64 349 449.47 332.5C451.6 290.37 451.93 287.07 454.14 284.86C458.69 280.31 460.56 281.94 477.02 304.71C493.53 327.55 512.55 352.87 527.18 371.5C539.36 387.01 572.78 427.01 574.96 428.68C575.81 429.34 580.95 431.28 586.38 433.01C591.82 434.74 600.32 437.94 605.26 440.12C610.21 442.29 614.46 443.87 614.71 443.62C615.33 443.01 612.33 411.06 609.91 392.5C601.76 329.84 589.19 297.03 562.08 267.66C554.52 259.47 553 257.28 553 254.57C553 252.04 553.58 251.06 555.61 250.13C557.05 249.47 559.07 249.2 560.09 249.53C562.39 250.26 575.14 265.26 583.54 277.13C603.68 305.58 613.81 339.52 621.41 404C627.11 452.33 629.02 488.57 627.89 527C627.08 554.37 621.09 637.88 616.99 679C614.22 706.8 606.72 780.41 605.94 787.5C604.83 797.61 599.24 836.21 598.41 839.52ZM429.41 782.56C436.87 784.67 446.63 783.69 458.5 779.64C496.29 766.76 540.06 743.92 575 718.84C595.45 704.17 604.89 696.36 605.45 693.69C605.94 691.33 608.79 659.29 612.01 620C615.34 579.35 617.95 539.62 618.65 518.95L619.3 499.4L612.9 492.07C604.6 482.57 597.56 473.95 582.94 455.39L571.04 440.28L565.37 439.14C562.25 438.52 552.9 437.25 544.6 436.32C531.61 434.88 527.48 434.81 515 435.84C493.17 437.64 474.42 442.33 459.77 449.64C455.05 452 452.89 453.68 452.56 455.25C452.3 456.49 451.59 470.77 450.99 487C449.14 537.15 448.81 538.94 441.66 537.6C437.58 536.83 433.16 532.06 419.79 514C401.99 489.96 385.92 463.59 368.93 430.5C350.58 394.78 327.91 341.84 316.79 308.75C313.88 300.09 311.24 293 310.91 293C310.59 293 306.9 305.04 302.71 319.75C293.2 353.21 275.56 412.66 272.96 420.07C271.88 423.13 271 425.92 271 426.28C271 426.64 276.06 426.66 282.25 426.33C308.04 424.95 337.99 432.02 349.62 442.24C354.24 446.3 355.34 448.49 354.01 450.98C351.88 454.96 349.53 455.21 345.36 451.87C332.87 441.89 307.07 435.95 282.31 437.36C276.16 437.71 270.06 438.41 268.76 438.9C266.2 439.87 265.93 440.42 257.91 461C255.01 468.42 250.44 479.67 247.75 486C244.72 493.13 243.02 498.45 243.29 500C243.53 501.38 245.85 511.27 248.44 522C253.52 543.03 258.8 569.02 262.04 589C263.15 595.88 264.94 606.9 266.02 613.5C267.09 620.1 268.89 631.31 270.01 638.4C272.4 653.59 273.76 656.98 282.62 669.83C291.98 683.41 300.64 693.39 316.69 709.09C345.73 737.5 381.66 762.44 413.82 776.52C419.6 779.05 426.61 781.77 429.41 782.56ZM857.15 566.43C857.97 573.13 858.62 575.73 859.15 574.43C860.09 572.12 868.3 529.67 870.55 515.5C871.43 510 873.88 493.64 876.01 479.14C879.9 452.65 880.95 449 884.65 449C886.98 449 889.85 452.73 890.98 457.2C899.88 492.42 914.82 536.23 916.47 531.93C917.56 529.09 918.49 468.2 917.87 440.5C916.06 359.96 902.5 295.51 870.74 216.5C856.2 180.32 815.24 95.16 809.46 89.1C808.31 87.89 807.14 88.02 801.31 89.98C786.05 95.1 752.04 114.03 724 133.01C716.58 138.04 705.62 145.37 699.65 149.31C692.1 154.3 689.22 156.72 690.15 157.27C690.89 157.71 696.37 160.97 702.33 164.52L713.16 170.97L722.66 169.98C738 168.39 754.08 170.93 763.45 176.42C769.17 179.77 776.1 187.46 779.3 194C784.49 204.63 785.32 218.97 781.28 228.11L779.29 232.6L785.23 241.55C800.76 264.93 820.83 313.15 829.52 347.93C837.03 377.99 839.45 399.45 838.75 429.89C838.23 452.49 838.23 452.51 841.55 469C844.93 485.79 854.95 548.38 857.15 566.43ZM787.42 560C786.8 563.39 786.83 563.43 788.38 561.35C791.09 557.69 801.62 536.03 805.79 525.5C811.96 509.94 818.88 487.9 822.6 472C831.77 432.74 830.93 395.8 819.87 351.74C812.78 323.48 798 284.11 798 293.47C798 295.69 780.17 330.29 774.02 340C754.31 371.15 742.62 387.67 721.83 413.77C716.45 420.51 711.6 426.87 711.06 427.89C710.4 429.11 710.39 432.62 711.01 438.06C711.53 442.63 712.26 453.48 712.63 462.18C713.26 476.92 713.82 479.72 715.58 476.87C715.96 476.25 719.55 474.23 723.56 472.38C732.86 468.08 742.83 466.56 751.66 468.1C771.45 471.55 786.77 494.43 789.42 524.5C790 531.15 788.8 552.51 787.42 560ZM243.25 836.39L250.5 858.28L250.72 851.39C252.48 796.21 257.15 724.7 262.03 678.2C263.74 661.84 263.8 659.24 262.53 653.7C261.2 647.9 256.78 621.41 250.46 581.28L247.75 564.05L237.12 554.65C231.28 549.48 221.77 540.92 216 535.64L205.5 526.04L204.86 534.27C204.51 538.8 203.89 557.35 203.49 575.5C201.37 670.01 212.65 744.04 243.25 836.39ZM707 410.63C707 412.48 707.34 413.98 707.75 413.97C708.49 413.93 710.15 411.83 729.24 386.8C744.23 367.15 761.56 340.87 773.24 320.13C780.63 306.99 792.99 280.62 793 277.98C793 275.21 773.18 241 771.57 241C771.38 241 767.23 243.52 762.36 246.6C740.12 260.65 700.14 276.4 678.75 279.53C676.14 279.91 674 280.48 674 280.79C674 281.1 675.32 284.99 676.94 289.43C682.01 303.33 688.77 326.16 694.06 347.22C699.73 369.82 707 405.44 707 410.63ZM689 647.24C689 648.82 691.86 647.81 703.66 642.09C720.53 633.9 731.66 626.23 744.16 614.19C763.64 595.41 772.29 582.57 775.94 567.04C783.73 533.81 779.15 502.31 764.38 487.54C752.99 476.15 740.21 475.2 723.5 484.5C713.76 489.92 712.32 492.03 711.54 502C709.65 526.07 705.13 562 700.4 590.5C697.71 606.65 691.65 637.3 690.01 642.99C689.45 644.91 689 646.83 689 647.24ZM563.97 596.5C554.79 602.35 543.62 599.31 537.12 589.19C526.32 572.35 520.24 547.26 519.13 514.91L518.5 496.32L509 498.65C496.72 501.66 491.36 503.99 481.16 510.73C473.84 515.57 472.54 516.11 470.44 515.16C469.13 514.56 467.75 512.84 467.37 511.34C466.77 508.96 467.31 508.04 471.53 504.23C476.56 499.67 482.99 496.05 494.02 491.57C519.65 481.16 564.42 482.99 597.86 495.83C606.41 499.12 608.6 502.15 605.96 507.07C604.62 509.58 603.4 509.51 596.6 506.5C593.49 505.12 590.73 504 590.47 504C590.21 504 590 507.04 590 510.75C589.99 514.46 589.53 522.67 588.96 529C585.66 565.67 577.43 587.9 563.97 596.5ZM453.61 434.75C453.35 437.64 453.5 440 453.93 440C454.37 440 457.6 438.7 461.11 437.11C469.45 433.34 486.94 428.45 499.5 426.38C511.45 424.41 538.79 424.13 550.41 425.85C554.75 426.5 558.49 426.84 558.72 426.62C558.94 426.39 557.14 423.97 554.7 421.23C533.58 397.45 493.24 345.91 470.5 313.66L461.5 300.89L460.82 311.2C460.45 316.86 459.66 330.27 459.08 341C456.92 380.46 454.05 429.65 453.61 434.75ZM339.41 596.6C334.24 599.64 329.88 599.62 323.26 596.54C318.88 594.5 317.28 592.94 313.42 586.98C303.43 571.55 298.53 551 296.75 517.12L295.58 494.74L285.04 495.28C279.24 495.58 271.19 496.42 267.14 497.14C259.97 498.41 259.73 498.39 257.98 496.23C253.82 491.09 258.26 487.85 273 485.26C284.48 483.25 306.56 484.04 317.14 486.84C344.34 494.04 355.98 512.23 355.97 547.5C355.97 573.56 350.37 590.16 339.41 596.6ZM550.29 587.03C554.15 589.39 554.33 589.4 558 587.5C569.21 581.7 578.28 551.82 579.7 516L580.28 501.5L569.8 499.24C558.66 496.83 534.05 494.53 530.73 495.58C528.81 496.19 528.76 496.88 529.28 514.86C529.84 534.23 531.41 545.52 535.48 559.66C539.63 574.08 544.84 583.71 550.29 587.03ZM324.53 584.47C329.23 589.16 332.74 589.19 336.79 584.58C343.29 577.18 346.64 560.86 345.73 541C344.59 516.01 336.05 503.07 317.29 497.87C316.84 497.74 316.4 497.62 315.98 497.51C311.04 496.13 308.54 495.43 307.28 496.38C305.99 497.35 305.99 500.04 306 505.48C306 505.93 306 506.4 306 506.89C306 532.67 311.25 561.45 318.64 576.22C319.94 578.81 322.59 582.52 324.53 584.47ZM757.46 212.13C764.59 219.13 770.74 224.66 771.14 224.41C772.85 223.36 774.02 213.4 773.05 208.26C769.59 190.04 754.69 179.98 731.2 180.01L723.5 180.02L734 189.71C739.78 195.04 750.33 205.13 757.46 212.13ZM607.26 469.14C612.63 475.66 617.26 481 617.56 481C618.6 481 616.76 458.5 615.63 457.31C614.09 455.68 601.52 449.55 593.63 446.58L587.16 444.15L592.33 450.72C595.17 454.32 601.89 462.62 607.26 469.14Z" fill="#C74AFF"/>
<path d="M258.87 883.75C258.23 885.51 257.27 886 254.49 886H254.46C253.63 886 252.96 886 252.36 885.81C250.01 885.04 248.63 881.31 241.8 863C206.11 767.24 191.47 681.57 193.38 579.5C193.74 560.25 194.43 538.21 194.92 530.53L195.8 516.56L190.74 511.03C171.72 490.22 163.05 467.66 161.02 433.73C160.52 425.51 159.96 418.63 159.77 418.43C159.39 418.06 145.28 441.24 130.51 466.5L130.06 467.27C119.39 485.5 116.76 490 114.29 489.92C113.44 489.89 112.61 489.32 111.49 488.59C108 486.3 108.18 481.08 112.55 458.7C122.98 405.25 140.55 352.1 162.52 307.5C180.73 270.52 197.2 247.8 224.52 221.95C253.96 194.09 300.32 165.8 347.03 147.18C387.27 131.15 422.8 122.27 468.5 116.85C482.83 115.15 533.68 115.12 549 116.8C596.01 121.98 635.81 132.16 670.38 147.87L677.27 151L680.88 148.83C682.87 147.63 690.12 142.81 697 138.1C735.45 111.81 757.34 98.38 779.5 87.54C795.17 79.87 805.9 76 811.54 76C815.82 76 816.34 76.75 828.74 101C884.69 210.41 911.7 286.97 922.56 366.99C926.77 398.03 927.51 413.72 927.41 470C927.28 538.1 925.85 551 918.43 551C914.76 551 911.45 546.88 906 535.5C900.24 523.47 894.51 506.88 887.53 482C886.02 476.61 885.8 477.26 883.98 492.5C880.46 521.98 868.24 585.41 863.16 600.5C861.29 606.09 858.33 607.52 854.97 604.47C852.61 602.33 852 599.26 846.54 562C841.11 524.9 835.5 489.43 833.9 482C833.38 479.57 833.06 478.01 832.61 477.97C831.86 477.9 830.73 482 827.65 493.19L827.42 494C820.25 520.05 807.25 550.69 795.82 568.5C791.49 575.24 776.55 594.48 763.67 609.89C746.58 630.34 719.2 649 694 657.37C685.45 660.2 686.68 658.23 679.68 680.5C664.52 728.78 643.58 780.79 624.16 818.44C616.15 833.95 596.76 865.21 591.71 870.75C589.22 873.48 586.96 873.6 583.97 871.18L581.72 869.35L584.32 859.43C585.74 853.97 587.82 844.1 588.92 837.5C591.51 822.09 599.37 757.71 601.44 735C602.32 725.38 603.25 716.26 603.5 714.75C603.75 713.24 603.59 712 603.15 712C602.71 712 597.43 715.67 591.42 720.16C554.18 747.98 509.53 772.63 471.7 786.25C460.23 790.38 459.91 790.58 460.4 793.16C460.68 794.62 461.41 804.52 462.03 815.16C463.59 842.31 461.35 868.96 456.56 880.25C454.73 884.58 451.48 885.29 448.51 882.01C446.77 880.09 446.79 879.55 449.1 866.76C451.24 854.94 451.5 850.68 451.46 827.5C451.44 813.2 451.1 799.91 450.71 797.98L449.99 794.46L440.25 794.44C428.67 794.41 421.99 792.36 401.33 782.5C382.11 773.32 370.55 766.23 345.57 748.32C321.82 731.29 287.71 697.34 276.12 679.21C274.26 676.3 272.58 674.09 272.38 674.28C271.56 675.11 266.26 743.48 263.57 788C262.75 801.47 261.55 828.03 260.89 847C260.23 865.97 259.32 882.51 258.87 883.75ZM598.41 839.52C598.06 840.88 597.99 842 598.24 842C600.12 842 621.96 800.29 632.02 777.5C648.3 740.6 667.88 686.53 676.37 655C691.33 599.46 704.24 504.96 702.61 463C700.86 418.09 687.43 352.57 668.4 296.18C661.93 277 661.12 272.38 664 270.97C664.83 270.56 670.45 269.46 676.5 268.52C689.21 266.56 718.13 257.29 732.45 250.6C743.23 245.56 763 234.01 763 232.75C763 230.64 724.8 194.81 708.89 182C698.13 173.34 672.29 159.63 651.5 151.55C589.68 127.53 512.53 120.11 443.11 131.51C374.43 142.79 302.56 173.45 251.22 213.37C238.05 223.61 218.54 242.15 209.59 252.92C180.6 287.81 155.41 340.14 136.38 405C130.95 423.52 122.8 455.89 123.23 457.2C123.41 457.72 125.67 454.39 128.26 449.82C130.86 445.24 137.7 433.85 143.48 424.5C149.25 415.15 156.13 403.91 158.77 399.51C163.77 391.17 167.07 388.43 170.12 390.06C172.73 391.46 173.14 393.96 172.04 401.59C170.73 410.63 170.73 433.38 172.03 443.77C174.37 462.45 180.24 479.18 188.84 491.69C196.13 502.31 211.78 518.37 235.17 539.25C239.32 542.96 242.93 546 243.19 546C243.84 546 241.17 534.91 229.45 489C223.76 466.73 218.41 444.78 217.57 440.23C211.3 406.48 217.89 363.35 234.5 329.32C240.05 317.95 241.79 316.16 246 317.5C250.59 318.96 250.33 321.25 244.09 334.2C236.95 349.03 231.92 363.77 228.96 378.53C226.17 392.46 225.17 420.01 226.99 433.35C228.02 440.99 232.77 462.1 237.12 478.4L238.16 482.3L241.62 473.9C258 434.13 270 397.2 293.56 314C300.28 290.28 305.97 271.96 306.85 271.25C309.03 269.48 311.7 269.7 313.84 271.84C314.85 272.85 317.72 279.94 320.21 287.59C333.21 327.5 360.05 391.52 378.67 427C396.18 460.39 416.71 493.36 433.56 515.16L438.82 521.97L439.4 517.23C439.73 514.63 440.45 501.25 441.02 487.5C442.09 461.27 442.73 449.45 445.97 395.5C447.06 377.35 448.64 349 449.47 332.5C451.6 290.37 451.93 287.07 454.14 284.86C458.69 280.31 460.56 281.94 477.02 304.71C493.53 327.55 512.55 352.87 527.18 371.5C539.36 387.01 572.78 427.01 574.96 428.68C575.81 429.34 580.95 431.28 586.38 433.01C591.82 434.74 600.32 437.94 605.26 440.12C610.21 442.29 614.46 443.87 614.71 443.62C615.33 443.01 612.33 411.06 609.91 392.5C601.76 329.84 589.19 297.03 562.08 267.66C554.52 259.47 553 257.28 553 254.57C553 252.04 553.58 251.06 555.61 250.13C557.05 249.47 559.07 249.2 560.09 249.53C562.39 250.26 575.14 265.26 583.54 277.13C603.68 305.58 613.81 339.52 621.41 404C627.11 452.33 629.02 488.57 627.89 527C627.08 554.37 621.09 637.88 616.99 679C614.22 706.8 606.72 780.41 605.94 787.5C604.83 797.61 599.24 836.21 598.41 839.52ZM429.41 782.56C436.87 784.67 446.63 783.69 458.5 779.64C496.29 766.76 540.06 743.92 575 718.84C595.45 704.17 604.89 696.36 605.45 693.69C605.94 691.33 608.79 659.29 612.01 620C615.34 579.35 617.95 539.62 618.65 518.95L619.3 499.4L612.9 492.07C604.6 482.57 597.56 473.95 582.94 455.39L571.04 440.28L565.37 439.14C562.25 438.52 552.9 437.25 544.6 436.32C531.61 434.88 527.48 434.81 515 435.84C493.17 437.64 474.42 442.33 459.77 449.64C455.05 452 452.89 453.68 452.56 455.25C452.3 456.49 451.59 470.77 450.99 487C449.14 537.15 448.81 538.94 441.66 537.6C437.58 536.83 433.16 532.06 419.79 514C401.99 489.96 385.92 463.59 368.93 430.5C350.58 394.78 327.91 341.84 316.79 308.75C313.88 300.09 311.24 293 310.91 293C310.59 293 306.9 305.04 302.71 319.75C293.2 353.21 275.56 412.66 272.96 420.07C271.88 423.13 271 425.92 271 426.28C271 426.64 276.06 426.66 282.25 426.33C308.04 424.95 337.99 432.02 349.62 442.24C354.24 446.3 355.34 448.49 354.01 450.98C351.88 454.96 349.53 455.21 345.36 451.87C332.87 441.89 307.07 435.95 282.31 437.36C276.16 437.71 270.06 438.41 268.76 438.9C266.2 439.87 265.93 440.42 257.91 461C255.01 468.42 250.44 479.67 247.75 486C244.72 493.13 243.02 498.45 243.29 500C243.53 501.38 245.85 511.27 248.44 522C253.52 543.03 258.8 569.02 262.04 589C263.15 595.88 264.94 606.9 266.02 613.5C267.09 620.1 268.89 631.31 270.01 638.4C272.4 653.59 273.76 656.98 282.62 669.83C291.98 683.41 300.64 693.39 316.69 709.09C345.73 737.5 381.66 762.44 413.82 776.52C419.6 779.05 426.61 781.77 429.41 782.56ZM857.15 566.43C857.97 573.13 858.62 575.73 859.15 574.43C860.09 572.12 868.3 529.67 870.55 515.5C871.43 510 873.88 493.64 876.01 479.14C879.9 452.65 880.95 449 884.65 449C886.98 449 889.85 452.73 890.98 457.2C899.88 492.42 914.82 536.23 916.47 531.93C917.56 529.09 918.49 468.2 917.87 440.5C916.06 359.96 902.5 295.51 870.74 216.5C856.2 180.32 815.24 95.16 809.46 89.1C808.31 87.89 807.14 88.02 801.31 89.98C786.05 95.1 752.04 114.03 724 133.01C716.58 138.04 705.62 145.37 699.65 149.31C692.1 154.3 689.22 156.72 690.15 157.27C690.89 157.71 696.37 160.97 702.33 164.52L713.16 170.97L722.66 169.98C738 168.39 754.08 170.93 763.45 176.42C769.17 179.77 776.1 187.46 779.3 194C784.49 204.63 785.32 218.97 781.28 228.11L779.29 232.6L785.23 241.55C800.76 264.93 820.83 313.15 829.52 347.93C837.03 377.99 839.45 399.45 838.75 429.89C838.23 452.49 838.23 452.51 841.55 469C844.93 485.79 854.95 548.38 857.15 566.43ZM787.42 560C786.8 563.39 786.83 563.43 788.38 561.35C791.09 557.69 801.62 536.03 805.79 525.5C811.96 509.94 818.88 487.9 822.6 472C831.77 432.74 830.93 395.8 819.87 351.74C812.78 323.48 798 284.11 798 293.47C798 295.69 780.17 330.29 774.02 340C754.31 371.15 742.62 387.67 721.83 413.77C716.45 420.51 711.6 426.87 711.06 427.89C710.4 429.11 710.39 432.62 711.01 438.06C711.53 442.63 712.26 453.48 712.63 462.18C713.26 476.92 713.82 479.72 715.58 476.87C715.96 476.25 719.55 474.23 723.56 472.38C732.86 468.08 742.83 466.56 751.66 468.1C771.45 471.55 786.77 494.43 789.42 524.5C790 531.15 788.8 552.51 787.42 560ZM243.25 836.39L250.5 858.28L250.72 851.39C252.48 796.21 257.15 724.7 262.03 678.2C263.74 661.84 263.8 659.24 262.53 653.7C261.2 647.9 256.78 621.41 250.46 581.28L247.75 564.05L237.12 554.65C231.28 549.48 221.77 540.92 216 535.64L205.5 526.04L204.86 534.27C204.51 538.8 203.89 557.35 203.49 575.5C201.37 670.01 212.65 744.04 243.25 836.39ZM707 410.63C707 412.48 707.34 413.98 707.75 413.97C708.49 413.93 710.15 411.83 729.24 386.8C744.23 367.15 761.56 340.87 773.24 320.13C780.63 306.99 792.99 280.62 793 277.98C793 275.21 773.18 241 771.57 241C771.38 241 767.23 243.52 762.36 246.6C740.12 260.65 700.14 276.4 678.75 279.53C676.14 279.91 674 280.48 674 280.79C674 281.1 675.32 284.99 676.94 289.43C682.01 303.33 688.77 326.16 694.06 347.22C699.73 369.82 707 405.44 707 410.63ZM689 647.24C689 648.82 691.86 647.81 703.66 642.09C720.53 633.9 731.66 626.23 744.16 614.19C763.64 595.41 772.29 582.57 775.94 567.04C783.73 533.81 779.15 502.31 764.38 487.54C752.99 476.15 740.21 475.2 723.5 484.5C713.76 489.92 712.32 492.03 711.54 502C709.65 526.07 705.13 562 700.4 590.5C697.71 606.65 691.65 637.3 690.01 642.99C689.45 644.91 689 646.83 689 647.24ZM563.97 596.5C554.79 602.35 543.62 599.31 537.12 589.19C526.32 572.35 520.24 547.26 519.13 514.91L518.5 496.32L509 498.65C496.72 501.66 491.36 503.99 481.16 510.73C473.84 515.57 472.54 516.11 470.44 515.16C469.13 514.56 467.75 512.84 467.37 511.34C466.77 508.96 467.31 508.04 471.53 504.23C476.56 499.67 482.99 496.05 494.02 491.57C519.65 481.16 564.42 482.99 597.86 495.83C606.41 499.12 608.6 502.15 605.96 507.07C604.62 509.58 603.4 509.51 596.6 506.5C593.49 505.12 590.73 504 590.47 504C590.21 504 590 507.04 590 510.75C589.99 514.46 589.53 522.67 588.96 529C585.66 565.67 577.43 587.9 563.97 596.5ZM453.61 434.75C453.35 437.64 453.5 440 453.93 440C454.37 440 457.6 438.7 461.11 437.11C469.45 433.34 486.94 428.45 499.5 426.38C511.45 424.41 538.79 424.13 550.41 425.85C554.75 426.5 558.49 426.84 558.72 426.62C558.94 426.39 557.14 423.97 554.7 421.23C533.58 397.45 493.24 345.91 470.5 313.66L461.5 300.89L460.82 311.2C460.45 316.86 459.66 330.27 459.08 341C456.92 380.46 454.05 429.65 453.61 434.75ZM339.41 596.6C334.24 599.64 329.88 599.62 323.26 596.54C318.88 594.5 317.28 592.94 313.42 586.98C303.43 571.55 298.53 551 296.75 517.12L295.58 494.74L285.04 495.28C279.24 495.58 271.19 496.42 267.14 497.14C259.97 498.41 259.73 498.39 257.98 496.23C253.82 491.09 258.26 487.85 273 485.26C284.48 483.25 306.56 484.04 317.14 486.84C344.34 494.04 355.98 512.23 355.97 547.5C355.97 573.56 350.37 590.16 339.41 596.6ZM550.29 587.03C554.15 589.39 554.33 589.4 558 587.5C569.21 581.7 578.28 551.82 579.7 516L580.28 501.5L569.8 499.24C558.66 496.83 534.05 494.53 530.73 495.58C528.81 496.19 528.76 496.88 529.28 514.86C529.84 534.23 531.41 545.52 535.48 559.66C539.63 574.08 544.84 583.71 550.29 587.03ZM324.53 584.47C329.23 589.16 332.74 589.19 336.79 584.58C343.29 577.18 346.64 560.86 345.73 541C344.59 516.01 336.05 503.07 317.29 497.87C316.84 497.74 316.4 497.62 315.98 497.51C311.04 496.13 308.54 495.43 307.28 496.38C305.99 497.35 305.99 500.04 306 505.48C306 505.93 306 506.4 306 506.89C306 532.67 311.25 561.45 318.64 576.22C319.94 578.81 322.59 582.52 324.53 584.47ZM757.46 212.13C764.59 219.13 770.74 224.66 771.14 224.41C772.85 223.36 774.02 213.4 773.05 208.26C769.59 190.04 754.69 179.98 731.2 180.01L723.5 180.02L734 189.71C739.78 195.04 750.33 205.13 757.46 212.13ZM607.26 469.14C612.63 475.66 617.26 481 617.56 481C618.6 481 616.76 458.5 615.63 457.31C614.09 455.68 601.52 449.55 593.63 446.58L587.16 444.15L592.33 450.72C595.17 454.32 601.89 462.62 607.26 469.14Z" stroke="#C74AFF" stroke-width="8" mask="url(#path-1-outside-1_10_13)"/>
</g>
<defs>
<clipPath id="clip0_10_13">
<rect width="1024" height="1024" fill="white"/>
</clipPath>
</defs>
</svg>
